<svg xmlns="http://www.w3.org/2000/svg" viewBox="0 -0.5 16 16" shape-rendering="crispEdges">
<metadata>Made with Pixels to Svg https://codepen.io/shshaw/pen/XbxvNj</metadata>
<path stroke="#213557" d="M1 0h1M3 0h4M10 0h1M12 0h1M0 1h1M15 1h1M15 2h1M15 4h1M0 5h1M0 6h1M0 7h1M15 8h1M15 9h1M1 15h1M3 15h1M6 15h2M11 15h1M13 15h1" />
<path stroke="#213556" d="M2 0h1M9 0h1M0 3h1M15 3h1M0 4h1M15 5h1M0 9h1M15 12h1M2 15h1M4 15h1" />
<path stroke="#203456" d="M7 0h1M14 0h1M0 11h1" />
<path stroke="#203557" d="M8 0h1M15 6h1M15 14h1M9 15h1M12 15h1" />
<path stroke="#203556" d="M11 0h1M0 14h1M5 15h1M8 15h1" />
<path stroke="#213457" d="M13 0h1M0 2h1M15 10h1M0 12h1M0 13h1M10 15h1" />
<path stroke="#141c38" d="M1 1h1" />
<path stroke="#71a3b5" d="M2 1h1M4 4h1M8 5h2M1 6h1M4 13h1" />
<path stroke="#70a3b4" d="M3 1h3M7 1h4M12 1h2M1 2h1M1 4h1M14 4h1M7 5h1M10 5h1M12 5h1M10 7h1M3 9h2M7 9h1M9 9h1M12 9h3M1 10h1M4 10h1M14 10h1M4 11h1M6 11h1M14 12h1M1 13h3M5 13h3M10 13h2" />
<path stroke="#71a3b4" d="M6 1h1M4 3h1M1 5h2M4 5h1M1 8h1M1 9h1M9 13h1" />
<path stroke="#70a2b5" d="M11 1h1M14 6h1M14 7h1M4 8h1M2 9h1M6 9h1M13 13h1" />
<path stroke="#151d38" d="M14 1h1" />
<path stroke="#831d47" d="M2 2h1" />
<path stroke="#831d46" d="M3 2h1" />
<path stroke="#70a3b5" d="M4 2h1M14 2h1M14 5h1M1 7h1M6 7h1M11 9h1M1 11h1M14 13h1" />
<path stroke="#9dd4dc" d="M5 2h1M10 2h1M12 2h1" />
<path stroke="#9dd5dd" d="M6 2h2M11 2h1M8 3h1M5 6h1M8 6h1M11 6h3M5 7h1M7 7h1M9 7h1M7 10h1M13 10h1M9 11h3" />
<path stroke="#9cd5dd" d="M8 2h1M5 3h1M13 3h1M6 6h1M10 6h1M11 7h1M13 7h1M8 10h2" />
<path stroke="#9dd5dc" d="M9 2h1M7 3h1M11 3h1M5 10h2M10 10h2" />
<path stroke="#9dd4dd" d="M13 2h1M7 6h1M9 6h1M12 10h1M12 11h2" />
<path stroke="#71a2b4" d="M1 3h1M11 5h1M5 9h1M10 9h1" />
<path stroke="#6a142b" d="M2 3h1" />
<path stroke="#6a142a" d="M3 3h1" />
<path stroke="#b47181" d="M6 3h1" />
<path stroke="#9cd4dd" d="M9 3h1M5 11h1" />
<path stroke="#b4b170" d="M10 3h1" />
<path stroke="#70a2b4" d="M12 3h1M14 3h1M3 5h1M5 5h2M13 5h1M4 6h1M4 7h1M14 8h1M8 9h1M14 11h1M1 12h1M4 12h1M8 13h1M12 13h1" />
<path stroke="#446f8a" d="M2 4h1M13 4h1M8 8h1M9 12h1M7 14h1M11 14h1" />
<path stroke="#446e8b" d="M3 4h1M12 4h1M3 8h1M10 12h1M13 12h1M8 14h1M10 14h1" />
<path stroke="#456e8a" d="M5 4h2M6 8h1M13 8h1M2 12h2M6 14h1M12 14h2" />
<path stroke="#446e8a" d="M7 4h4M2 8h1M5 8h1M7 8h1M10 8h2M5 12h1M7 12h2M11 12h2M2 14h4M9 14h1" />
<path stroke="#446f8b" d="M11 4h1" />
<path stroke="#49a341" d="M2 6h1" />
<path stroke="#3b8f47" d="M3 6h1M3 11h1" />
<path stroke="#743d2a" d="M2 7h1" />
<path stroke="#642d22" d="M3 7h1" />
<path stroke="#70b495" d="M8 7h1" />
<path stroke="#af71b4" d="M12 7h1" />
<path stroke="#213456" d="M15 7h1M0 8h1M0 10h1M15 11h1M15 13h1M14 15h1" />
<path stroke="#456e8b" d="M9 8h1M12 8h1M6 12h1" />
<path stroke="#71e0d5" d="M2 10h1" />
<path stroke="#54bfc2" d="M3 10h1" />
<path stroke="#49a241" d="M2 11h1" />
<path stroke="#9cd5dc" d="M7 11h1" />
<path stroke="#718eb5" d="M8 11h1" />
<path stroke="#141d38" d="M1 14h1" />
<path stroke="#141c39" d="M14 14h1" />
</svg>